<svg width="70" height="70" viewBox="0 0 70 70" fill="none" xmlns="http://www.w3.org/2000/svg">
<path fill-rule="evenodd" clip-rule="evenodd" d="M35.0752 5.8335C19.0073 5.8335 5.98438 18.8564 5.98438 34.9243C5.98438 47.7752 14.3173 58.6806 25.879 62.5306C27.3344 62.7931 27.8594 61.8977 27.8594 61.1277C27.8594 60.4364 27.836 58.6047 27.8273 56.181C19.7335 57.9368 18.0244 52.2785 18.0244 52.2785C16.706 48.9185 14.7956 48.0231 14.7956 48.0231C12.156 46.2177 14.9969 46.2585 14.9969 46.2585C17.9194 46.4627 19.4506 49.2568 19.4506 49.2568C22.0465 53.7018 26.264 52.4185 27.9148 51.6747C28.1802 49.7935 28.9385 48.5102 29.7669 47.7839C23.3094 47.0518 16.5194 44.5552 16.5194 33.4047C16.5194 30.2343 17.654 27.6327 19.506 25.6027C19.2115 24.8647 18.2052 21.9043 19.7948 17.9027C19.7948 17.9027 22.236 17.1181 27.7923 20.8806C30.1653 20.235 32.6131 19.9055 35.0723 19.9006C37.5316 19.9046 39.9795 20.2341 42.3523 20.8806C47.9115 17.1152 50.3498 17.9027 50.3498 17.9027C51.9394 21.9043 50.9419 24.8647 50.6385 25.6027C52.5052 27.6327 53.6252 30.2314 53.6252 33.4047C53.6252 44.5843 46.8294 47.0402 40.3485 47.7606C41.384 48.6589 42.3173 50.4323 42.3173 53.1447C42.3173 57.0356 42.2823 60.1739 42.2823 61.1277C42.2823 61.9064 42.8015 62.8106 44.286 62.5247C55.8419 58.6689 64.166 47.7722 64.166 34.9243C64.166 18.8564 51.1431 5.8335 35.0752 5.8335Z" fill="#CCCCCC"/>
</svg>
