<svg width="70" height="70" viewBox="0 0 70 70" fill="none" xmlns="http://www.w3.org/2000/svg">
<path d="M61.0954 24.2227C61.066 22.0137 60.6524 19.8266 59.8733 17.7593C59.1976 16.0156 58.1657 14.432 56.8434 13.1097C55.521 11.7874 53.9374 10.7554 52.1937 10.0798C50.153 9.31371 47.9971 8.8995 45.8179 8.85475C43.012 8.72934 42.1225 8.69434 35 8.69434C27.8775 8.69434 26.9645 8.69434 24.1791 8.85475C22.0008 8.89983 19.846 9.31403 17.8062 10.0798C16.0622 10.7549 14.4784 11.7867 13.156 13.1091C11.8336 14.4315 10.8018 16.0153 10.1266 17.7593C9.35905 19.7985 8.94574 21.9538 8.90454 24.1323C8.77913 26.941 8.74121 27.8306 8.74121 34.9531C8.74121 42.0756 8.74121 42.9856 8.90454 45.7739C8.94829 47.9556 9.35954 50.1081 10.1266 52.1527C10.8029 53.8961 11.8355 55.4794 13.1583 56.8012C14.4811 58.123 16.0651 59.1544 17.8091 59.8293C19.8433 60.6262 21.9985 61.07 24.182 61.1418C26.9908 61.2673 27.8804 61.3052 35.0029 61.3052C42.1254 61.3052 43.0383 61.3052 45.8237 61.1418C48.0029 61.0989 50.1589 60.6857 52.1995 59.9198C53.9428 59.2433 55.526 58.2111 56.8482 56.8889C58.1705 55.5667 59.2027 53.9834 59.8791 52.2402C60.6462 50.1985 61.0575 48.046 61.1012 45.8614C61.2266 43.0556 61.2645 42.166 61.2645 35.0406C61.2587 27.9181 61.2587 27.0139 61.0954 24.2227ZM34.9825 48.4223C27.5333 48.4223 21.4987 42.3877 21.4987 34.9385C21.4987 27.4893 27.5333 21.4548 34.9825 21.4548C38.5586 21.4548 41.9882 22.8754 44.5169 25.4041C47.0456 27.9327 48.4662 31.3624 48.4662 34.9385C48.4662 38.5146 47.0456 41.9443 44.5169 44.473C41.9882 47.0016 38.5586 48.4223 34.9825 48.4223ZM49.0029 24.1002C48.5899 24.1006 48.1808 24.0195 47.7992 23.8616C47.4176 23.7037 47.0708 23.4722 46.7788 23.1801C46.4867 22.8881 46.2551 22.5413 46.0973 22.1597C45.9394 21.778 45.8583 21.369 45.8587 20.956C45.8587 20.5433 45.94 20.1346 46.0979 19.7533C46.2559 19.3721 46.4874 19.0256 46.7792 18.7338C47.071 18.4419 47.4175 18.2105 47.7988 18.0525C48.18 17.8946 48.5887 17.8133 49.0014 17.8133C49.4141 17.8133 49.8228 17.8946 50.2041 18.0525C50.5854 18.2105 50.9318 18.4419 51.2237 18.7338C51.5155 19.0256 51.747 19.3721 51.9049 19.7533C52.0628 20.1346 52.1441 20.5433 52.1441 20.956C52.1441 22.6943 50.7383 24.1002 49.0029 24.1002Z" fill="#CCCCCC"/>
<path d="M34.9829 43.6972C39.8202 43.6972 43.7416 39.7758 43.7416 34.9384C43.7416 30.1011 39.8202 26.1797 34.9829 26.1797C30.1455 26.1797 26.2241 30.1011 26.2241 34.9384C26.2241 39.7758 30.1455 43.6972 34.9829 43.6972Z" fill="#CCCCCC"/>
</svg>
