<svg width="54" height="54" viewBox="0 0 54 54" fill="none" xmlns="http://www.w3.org/2000/svg">
<path d="M44.3332 6.65002H8.86657C8.27867 6.65002 7.71485 6.88357 7.29915 7.29927C6.88344 7.71498 6.6499 8.27879 6.6499 8.86669V44.3334C6.6499 44.9212 6.88344 45.4851 7.29915 45.9008C7.71485 46.3165 8.27867 46.55 8.86657 46.55H44.3332C44.9211 46.55 45.4849 46.3165 45.9007 45.9008C46.3164 45.4851 46.5499 44.9212 46.5499 44.3334V8.86669C46.5499 8.27879 46.3164 7.71498 45.9007 7.29927C45.4849 6.88357 44.9211 6.65002 44.3332 6.65002ZM18.4847 40.647H12.5618V21.6059H18.4847V40.647ZM15.5232 19.0057C14.6132 19.0057 13.7404 18.6442 13.0969 18.0007C12.4533 17.3572 12.0918 16.4844 12.0918 15.5743C12.0918 14.6643 12.4533 13.7915 13.0969 13.148C13.7404 12.5044 14.6132 12.1429 15.5232 12.1429C16.4333 12.1429 17.3061 12.5044 17.9496 13.148C18.5931 13.7915 18.9546 14.6643 18.9546 15.5743C18.9546 16.4844 18.5931 17.3572 17.9496 18.0007C17.3061 18.6442 16.4333 19.0057 15.5232 19.0057ZM40.6491 40.647H34.7328V31.388C34.7328 29.1802 34.6929 26.3407 31.6561 26.3407C28.575 26.3407 28.1072 28.748 28.1072 31.2329V40.6493H22.1954V21.6081H27.8701V24.2105H27.9521C28.739 22.7142 30.6719 21.1359 33.5469 21.1359C39.5408 21.1359 40.6469 25.0772 40.6469 30.2065V40.647H40.6491Z" fill="#CCCCCC"/>
</svg>
