<svg width="70" height="70" viewBox="0 0 70 70" fill="none" xmlns="http://www.w3.org/2000/svg">
<path d="M26.3668 62.8252C29.1668 63.671 31.996 64.1668 35.0002 64.1668C42.7356 64.1668 50.1543 61.0939 55.6241 55.6241C61.0939 50.1543 64.1668 42.7356 64.1668 35.0002C64.1668 31.1699 63.4124 27.3772 61.9467 23.8386C60.4809 20.2999 58.3325 17.0846 55.6241 14.3762C52.9157 11.6678 49.7004 9.51944 46.1618 8.05368C42.6231 6.58791 38.8304 5.8335 35.0002 5.8335C31.1699 5.8335 27.3772 6.58791 23.8386 8.05368C20.2999 9.51944 17.0846 11.6678 14.3762 14.3762C8.9064 19.846 5.8335 27.2647 5.8335 35.0002C5.8335 47.396 13.621 58.0418 24.6168 62.2418C24.3543 59.9668 24.0918 56.2043 24.6168 53.6085L27.971 39.2002C27.971 39.2002 27.1252 37.5085 27.1252 34.8252C27.1252 30.8002 29.6335 27.796 32.4918 27.796C35.0002 27.796 36.1668 29.6335 36.1668 31.996C36.1668 34.5043 34.5043 38.0918 33.6585 41.5335C33.1627 44.3918 35.1752 46.9002 38.0918 46.9002C43.2835 46.9002 47.3085 41.3585 47.3085 33.5418C47.3085 26.5418 42.2918 21.7585 35.0877 21.7585C26.8627 21.7585 22.021 27.8835 22.021 34.3293C22.021 36.8377 22.8377 39.3752 24.1793 41.0377C24.4418 41.2127 24.4418 41.446 24.3543 41.8835L23.5085 45.0627C23.5085 45.5585 23.1877 45.7335 22.6918 45.3835C18.9585 43.7502 16.8002 38.4418 16.8002 34.1543C16.8002 24.9377 23.3335 16.5668 35.9335 16.5668C45.9668 16.5668 53.7835 23.771 53.7835 33.3377C53.7835 43.371 47.571 51.421 38.6752 51.421C35.846 51.421 33.0752 49.9043 32.0835 48.1252L30.1293 55.0377C29.4585 57.546 27.621 60.9002 26.3668 62.9127V62.8252Z" fill="#CCCCCC"/>
</svg>
