<svg width="70" height="70" viewBox="0 0 70 70" fill="none" xmlns="http://www.w3.org/2000/svg">
<path d="M18.0248 58.3334C21.5364 58.3334 24.3832 55.4866 24.3832 51.975C24.3832 48.4634 21.5364 45.6167 18.0248 45.6167C14.5132 45.6167 11.6665 48.4634 11.6665 51.975C11.6665 55.4866 14.5132 58.3334 18.0248 58.3334Z" fill="#CCCCCC"/>
<path d="M11.6665 12.9497V21.2039C32.1707 21.2039 48.7957 37.8289 48.7957 58.333H57.0498C57.0498 33.2789 36.7207 12.9497 11.6665 12.9497ZM11.6665 29.458V37.7122C23.0415 37.7122 32.2873 46.958 32.2873 58.333H40.5415C40.5415 42.3789 27.6207 29.458 11.6665 29.458Z" fill="#CCCCCC"/>
</svg>
