<svg width="54" height="54" viewBox="0 0 54 54" fill="none" xmlns="http://www.w3.org/2000/svg">
<path d="M43.5196 17.7268C43.5484 18.1147 43.5484 18.5004 43.5484 18.8861C43.5484 30.6898 34.5643 44.2913 18.1454 44.2913C13.087 44.2913 8.38764 42.8261 4.43311 40.2814C5.15131 40.3634 5.84291 40.3922 6.58992 40.3922C10.6087 40.4019 14.5137 39.0581 17.6755 36.5773C15.8122 36.5436 14.0059 35.9288 12.5089 34.8189C11.012 33.709 9.89893 32.1593 9.32529 30.3862C9.87724 30.4682 10.4314 30.5236 11.0122 30.5236C11.8124 30.5236 12.617 30.4128 13.3641 30.2199C11.3419 29.8116 9.52362 28.7156 8.21833 27.1181C6.91303 25.5206 6.20132 23.5204 6.20422 21.4574V21.3466C7.39457 22.0094 8.77556 22.4239 10.2386 22.4793C9.01294 21.6649 8.00797 20.5597 7.31331 19.2625C6.61865 17.9652 6.2559 16.5162 6.25742 15.0446C6.25742 13.3865 6.69854 11.8659 7.47216 10.5403C9.71573 13.3001 12.514 15.5579 15.6856 17.1674C18.8573 18.7769 22.3317 19.7023 25.8838 19.8836C25.7464 19.2186 25.6621 18.5292 25.6621 17.8376C25.6615 16.6649 25.8921 15.5036 26.3406 14.42C26.7891 13.3365 27.4468 12.352 28.276 11.5227C29.1052 10.6935 30.0897 10.0359 31.1733 9.58735C32.2568 9.13884 33.4181 8.90829 34.5909 8.90888C37.1622 8.90888 39.483 9.98618 41.1145 11.7285C43.1134 11.3419 45.0303 10.6122 46.7803 9.57166C46.114 11.635 44.7183 13.3846 42.8546 14.4927C44.6274 14.2905 46.3601 13.8242 47.995 13.1095C46.7739 14.8897 45.2608 16.4507 43.5196 17.7268Z" fill="#CCCCCC"/>
</svg>
